# xmcd CD database file
#
# Track frame offsets:
#	150
#	19507
#	38817
#	60547
#	77535
#	95435
#	131955
#	153702
#	180960
#	209865
#	228357
#	246377
#	266837
#
# Disc length: 3774 seconds
#
# Revision: 0
# Processed by: cddbd v1.5PL3 Copyright (c) Steve Scherf et al.
# Submitted via: CDex 1.50beta10
#
DISCID=b20ebc0d
DTITLE=Skeeter Brandon and HWY 61 - License To Thrill
DYEAR=1996
DGENRE=Blues
TTITLE0=License To Thrill
TTITLE1=Success
TTITLE2=Let Love Take Care Of The Rest
TTITLE3=So Sad, So Bad
TTITLE4=I Knew You Would
TTITLE5=The Sky Is Crying
TTITLE6=You Can't Have Your Cake
TTITLE7=No Finance, No Romance
TTITLE8=Steal Away
TTITLE9=No Problem (Italy)
TTITLE10=Too Old To Die Young
TTITLE11=It's Not What You Do
TTITLE12=You Bring Out The Best In Me
EXTD=YEAR: 1996
EXTT0=
EXTT1=
EXTT2=
EXTT3=
EXTT4=
EXTT5=
EXTT6=
EXTT7=
EXTT8=
EXTT9=
EXTT10=
EXTT11=
EXTT12=
PLAYORDER=
